<?xml version="1.0" encoding="UTF-8" standalone="no"?>
<svg
   viewBox="0 0 192 192"
   version="1.1"
   id="svg8"
   sodipodi:docname="launch-icon-monochrome.svg"
   inkscape:export-filename="../../../../../../../../htdocs/themeforest/nectar/classic/res/android/launch-icons/xxxhdpi-monochrome.png"
   inkscape:export-xdpi="96"
   inkscape:export-ydpi="96"
   inkscape:version="1.2.1 (9c6d41e, 2022-07-14)"
   width="192"
   height="192"
   xmlns:inkscape="http://www.inkscape.org/namespaces/inkscape"
   xmlns:sodipodi="http://sodipodi.sourceforge.net/DTD/sodipodi-0.dtd"
   xmlns="http://www.w3.org/2000/svg"
   xmlns:svg="http://www.w3.org/2000/svg"
   xmlns:rdf="http://www.w3.org/1999/02/22-rdf-syntax-ns#"
   xmlns:cc="http://creativecommons.org/ns#"
   xmlns:dc="http://purl.org/dc/elements/1.1/">
  <metadata
     id="metadata14">
    <rdf:RDF>
      <cc:Work
         rdf:about="">
        <dc:format>image/svg+xml</dc:format>
        <dc:type
           rdf:resource="http://purl.org/dc/dcmitype/StillImage" />
      </cc:Work>
    </rdf:RDF>
  </metadata>
  <defs
     id="defs12" />
  <sodipodi:namedview
     pagecolor="#ffffff"
     bordercolor="#666666"
     borderopacity="1"
     objecttolerance="10"
     gridtolerance="10"
     guidetolerance="10"
     inkscape:pageopacity="0"
     inkscape:pageshadow="2"
     inkscape:window-width="1440"
     inkscape:window-height="785"
     id="namedview10"
     showgrid="false"
     inkscape:zoom="2.9635417"
     inkscape:cx="95.999999"
     inkscape:cy="95.999999"
     inkscape:window-x="0"
     inkscape:window-y="25"
     inkscape:window-maximized="0"
     inkscape:current-layer="svg8"
     inkscape:showpageshadow="2"
     inkscape:pagecheckerboard="0"
     inkscape:deskcolor="#d1d1d1" />
  <path
     fill="#1c1c1c"
     d="M 120.11567,119.87999 H 91.903954 v -3.42146 q 0.890399,-0.0937 2.155719,-0.23437 1.265301,-0.1406 1.921388,-0.46869 0.984121,-0.51557 1.405896,-1.49983 0.421765,-0.98425 0.421765,-2.9059 V 89.414831 q 0,-4.780698 -1.780788,-7.171037 -1.733949,-2.437216 -5.154969,-2.437216 -1.874535,0 -3.514757,0.562441 -1.593344,0.562432 -3.139834,1.640429 -1.359048,0.937384 -2.202578,1.921648 -0.796677,0.984253 -1.359044,1.734169 v 25.168905 q 0,1.64044 0.468635,2.7653 0.468633,1.07799 1.546485,1.64043 0.749824,0.42183 1.874534,0.74992 1.124721,0.32809 2.202589,0.46869 v 3.42147 H 58.256088 v -3.42147 q 1.171584,-0.0937 2.343167,-0.23436 1.218443,-0.18747 2.061983,-0.46869 1.499628,-0.51556 2.061983,-1.59356 0.56236,-1.078 0.56236,-2.81217 V 84.071718 q 0,-1.452953 -0.749809,-2.859045 Q 63.785949,79.806589 62.567507,78.916072 61.723966,78.353644 60.411791,77.978686 59.146486,77.603729 57.6,77.463119 v -3.421472 l 22.353803,-1.218606 0.702949,0.703047 v 6.796073 h 0.187469 q 1.312175,-1.171741 3.186709,-2.81218 1.874534,-1.640418 3.467889,-2.671548 1.733939,-1.124871 4.545745,-1.921659 2.811792,-0.796774 5.9985,-0.796774 7.638716,0 11.434656,4.358854 3.84278,4.312002 3.84278,11.483034 v 22.966032 q 0,1.73418 0.51551,2.76531 0.5155,1.03111 1.92139,1.64042 0.74981,0.32809 1.82767,0.65618 1.12473,0.32809 2.53062,0.4687 z"
     id="path4"
     style="fill:#000000;fill-opacity:1;stroke-width:0.12" />
  <path
     fill="#fbbd0d"
     d="m 134.37249,111.43347 c -0.18596,2.46144 -1.26624,4.52629 -3.24082,6.19452 -1.94341,1.67059 -4.16127,2.41171 -6.65355,2.22338 -2.52341,-0.1907 -0.53385,-4.51453 -2.23772,-6.42942 -1.67038,-1.94368 -6.51463,-0.89075 -6.32632,-3.38335 0.18831,-2.4926 1.25417,-4.57419 3.19759,-6.24478 1.97694,-1.6994 4.22713,-2.45375 6.75054,-2.26305 2.49228,0.18833 4.57243,1.26992 6.24044,3.24474 1.69919,1.97721 2.45579,4.19652 2.26984,6.65796 z"
     id="path6"
     style="fill:#000000;fill-opacity:1;stroke-width:0.12" />
</svg>
